# xmcd
#
# Track frame offsets:
# 150
# 17599
# 34927
# 51925
# 68472
# 85210
# 102164
# 119187
# 136017
# 152696
# 169383
# 186022
# 202778
# 220304
# 236725
# 253398
#
# Disc length: 3590 seconds
#
#
# Revision: 0
# Processed by: cddbd v1.5.1PL0 Copyright (c) Steve Scherf et al.
# Submitted via: FreeRIP 2.93 
#
DISCID=e00e0410
DTITLE=Astrid Heckmann - Best of Astrid
DYEAR=2004
DGENRE=Square Dance MS
TTITLE0=Leap of Faith
TTITLE1=On and on
TTITLE2=Billy does your Bulldog bite
TTITLE3=Mores eat Oats
TTITLE4=Boggie Shoes
TTITLE5=Brown eyed Girl
TTITLE6=Ticket to Ride
TTITLE7=Any old Time
TTITLE8=Reggae Cowboy
TTITLE9=Easy come, easy go
TTITLE10=Walking in Memphis
TTITLE11=Tijuana Baby
TTITLE12=Truly, Madly, Deeply
TTITLE13=Proud Mary
TTITLE14=Sweet Home Alabama
TTITLE15=Operator
EXTD=
EXTT0=
EXTT1=
EXTT2=
EXTT3=
EXTT4=
EXTT5=
EXTT6=
EXTT7=
EXTT8=
EXTT9=
EXTT10=
EXTT11=
EXTT12=
EXTT13=
EXTT14=
EXTT15=
PLAYORDER=
